<svg width="573px" height="283px" viewBox="0 0 573 283" version="1.1" xmlns="http://www.w3.org/2000/svg" xmlns:xlink="http://www.w3.org/1999/xlink">
    <g stroke="none" stroke-width="1" fill="none" fill-rule="evenodd">
        <g>
            <g class="fill-logo" transform="translate(102.000000, 53.000000)" fill="#213452" fill-rule="nonzero">
                <path d="M0.8,125.7 L0.8,41.3 L17.8,41.3 L17.8,47 C23.3,43.5 28.7,41.3 36.2,41.3 C47.6,41.3 57.9,45.4 63.7,51.8 C69.8,45.4 78.5,41.3 88,41.3 C106.2,41.3 120.9,56.1 120.9,74.2 L120.9,125.7 L103.9,125.7 L103.9,74.2 C103.9,65.4 96.8,58.3 88,58.3 C79.8,58.3 73.1,64.4 72.1,72.4 L72.1,125.8 L55.1,125.8 L55,74.3 C55,65.5 47.3,58.4 36.3,58.4 C25.1,58.4 17.9,67.2 17.9,78.4 L17.9,125.8 L0.8,125.8 L0.8,125.7 Z"></path>
                <path d="M205.9,113.9 C197.5,122.3 186.3,126.4 175.4,126.4 C164.3,126.4 153.3,122.3 144.9,113.9 C136.5,105.5 132.4,94.5 132.4,83.4 C132.4,72.5 136.5,61.3 144.9,52.9 C153.3,44.7 164.2,40.4 175.4,40.4 C186.3,40.4 199.4,46.6 211.9,58.8 L163.8,106.9 C167.3,108.7 171.3,109.6 175.4,109.6 C182.1,109.6 188.7,107.2 194,101.9 L205.9,113.9 Z M151.8,95 L187.1,59.7 C183.7,58.1 179,57.1 175.3,57.1 C168.3,57.1 161.7,59.7 156.7,64.8 C151.4,70.1 149,76.7 149,83.4 C149.1,87.5 150,91.5 151.8,95 Z"></path>
                <path d="M284.3,125.8 L284.3,110.2 C276.9,120.1 264.1,126.4 251.5,126.4 C229.4,126.4 211.3,107.1 211.3,83.3 C211.3,59.6 229.3,40.3 251.5,40.3 C264.1,40.3 276.9,46.7 284.3,56.5 L284.3,0.7 L301.3,0.7 L301.3,125.9 L284.3,125.9 L284.3,125.8 Z M254.7,57 C240.1,57 228.3,68.8 228.3,83.3 C228.3,97.9 240.1,109.7 254.7,109.7 C269.2,109.7 281,97.9 281,83.3 C280.9,68.7 269.2,57 254.7,57 Z"></path>
                <path d="M328.9,7.9 C334.7,7.9 339.5,12.7 339.5,18.5 C339.5,24.3 334.7,29 328.9,29 C323.1,29 318.4,24.3 318.4,18.5 C318.4,12.7 323.1,7.9 328.9,7.9 Z M337.8,41.2 L337.8,125.6 L320.8,125.6 L320.8,41.2 L337.8,41.2 L337.8,41.2 Z"></path>
                <path d="M426.7,125.8 L426.7,110.5 C419.3,120.4 406.5,126.7 393.9,126.7 C371.8,126.7 353.7,107.4 353.7,83.6 C353.7,59.9 371.7,40.6 393.9,40.6 C406.5,40.6 419.3,47 426.7,56.8 L426.7,41.5 L443.7,41.5 L443.7,125.9 L426.7,125.9 L426.7,125.8 Z M397,57.3 C382.4,57.3 370.6,69.1 370.6,83.6 C370.6,98.2 382.4,110 397,110 C411.5,110 423.3,98.2 423.3,83.6 C423.3,69 411.5,57.3 397,57.3 Z"></path>
            </g>
            <g class="fill-logo" transform="translate(102.000000, 17.000000)" fill="#213452" fill-rule="nonzero">
                <path d="M31.7,7.5 L27.4,11.9 C23.8,8.4 20.3,6.7 16.9,6.7 C14.7,6.7 12.9,7.4 11.3,8.9 C9.7,10.3 9,12 9,13.9 C9,15.6 9.6,17.2 10.9,18.7 C12.2,20.3 14.9,22.1 19,24.2 C24,26.8 27.4,29.3 29.2,31.7 C31,34.1 31.8,36.8 31.8,39.9 C31.8,44.2 30.3,47.8 27.3,50.8 C24.3,53.8 20.5,55.2 16,55.2 C13,55.2 10.1,54.5 7.4,53.2 C4.7,51.9 2.4,50.1 0.6,47.8 L4.8,43 C8.2,46.9 11.8,48.8 15.7,48.8 C18.4,48.8 20.7,47.9 22.6,46.2 C24.5,44.5 25.4,42.5 25.4,40.1 C25.4,38.2 24.8,36.5 23.5,35 C22.3,33.5 19.4,31.7 15.1,29.5 C10.4,27.1 7.2,24.7 5.5,22.3 C3.8,19.9 3,17.2 3,14.2 C3,10.2 4.3,7 7,4.3 C9.7,1.7 13.1,0.4 17.2,0.4 C22,0.5 26.8,2.8 31.7,7.5 Z"></path>
                <path d="M43.5,1.8 L50.2,1.8 L50.2,10.8 C52.5,7.5 54.9,5.1 57.4,3.5 C60.8,1.5 64.3,0.4 68.1,0.4 C70.6,0.4 73,0.9 75.3,1.9 C77.6,2.9 79.4,4.2 80.9,5.8 C82.3,7.4 83.6,9.8 84.6,12.9 C86.8,8.8 89.6,5.7 92.9,3.6 C96.2,1.5 99.8,0.4 103.7,0.4 C107.3,0.4 110.5,1.3 113.2,3.1 C116,4.9 118,7.5 119.3,10.7 C120.6,14 121.3,18.8 121.3,25.3 L121.3,53.7 L114.5,53.7 L114.5,25.3 C114.5,19.7 114.1,15.9 113.3,13.8 C112.5,11.7 111.1,10 109.2,8.8 C107.3,7.5 105,6.9 102.3,6.9 C99.1,6.9 96.1,7.9 93.4,9.8 C90.7,11.7 88.8,14.3 87.5,17.5 C86.3,20.7 85.6,26 85.6,33.5 L85.6,53.9 L79,53.9 L79,27.3 C79,21 78.6,16.8 77.8,14.5 C77,12.3 75.7,10.5 73.7,9.1 C71.8,7.7 69.4,7.1 66.8,7.1 C63.7,7.1 60.8,8 58.1,9.9 C55.4,11.8 53.4,14.3 52.1,17.4 C50.8,20.6 50.2,25.4 50.2,31.9 L50.2,53.9 L43.5,53.9 L43.5,1.8 L43.5,1.8 Z"></path>
                <path d="M187.2,1.8 L187.2,53.8 L180.6,53.8 L180.6,44.9 C177.8,48.3 174.6,50.9 171.2,52.6 C167.7,54.3 163.9,55.2 159.7,55.2 C152.3,55.2 146,52.5 140.8,47.2 C135.6,41.9 133,35.4 133,27.7 C133,20.2 135.6,13.8 140.9,8.5 C146.2,3.2 152.5,0.5 159.9,0.5 C164.2,0.5 168,1.4 171.5,3.2 C175,5 178,7.7 180.6,11.4 L180.6,1.8 L187.2,1.8 L187.2,1.8 Z M160.5,6.9 C156.8,6.9 153.3,7.8 150.2,9.6 C147,11.4 144.5,14 142.7,17.3 C140.8,20.6 139.9,24.1 139.9,27.8 C139.9,31.5 140.8,35 142.7,38.3 C144.6,41.6 147.1,44.2 150.3,46.1 C153.5,48 156.9,48.9 160.5,48.9 C164.2,48.9 167.6,48 170.9,46.1 C174.2,44.3 176.7,41.8 178.5,38.6 C180.3,35.4 181.2,31.9 181.2,27.9 C181.2,21.9 179.2,16.8 175.3,12.8 C171.2,8.9 166.3,6.9 160.5,6.9 Z"></path>
                <path d="M199.8,1.8 L206.6,1.8 L206.6,9.4 C208.6,6.4 210.8,4.2 213.1,2.7 C215.4,1.2 217.7,0.5 220.2,0.5 C222,0.5 224,1.1 226.1,2.3 L222.6,7.9 C221.2,7.3 220,7 219.1,7 C216.9,7 214.7,7.9 212.6,9.7 C210.5,11.5 208.9,14.4 207.9,18.2 C207.1,21.2 206.7,27.2 206.7,36.2 L206.7,53.8 L199.9,53.8 L199.9,1.8 L199.8,1.8 Z"></path>
            </g>
            <g class="fill-logo" transform="translate(42.000000, 220.000000)" fill="#213452" fill-rule="nonzero">
                <path d="M35,22.2 L31.5,24.4 C28.5,20.4 24.3,18.4 19.1,18.4 C14.9,18.4 11.4,19.7 8.7,22.4 C5.9,25.1 4.6,28.4 4.6,32.2 C4.6,34.7 5.2,37.1 6.5,39.3 C7.8,41.5 9.5,43.2 11.7,44.4 C13.9,45.6 16.4,46.2 19.2,46.2 C24.2,46.2 28.4,44.2 31.6,40.2 L35.1,42.5 C33.5,45 31.3,46.9 28.5,48.3 C25.7,49.7 22.6,50.3 19,50.3 C13.6,50.3 9.1,48.6 5.5,45.1 C1.9,41.7 0.1,37.5 0.1,32.5 C0.1,29.2 0.9,26.1 2.6,23.2 C4.3,20.3 6.6,18.1 9.5,16.5 C12.4,14.9 15.7,14.1 19.3,14.1 C21.6,14.1 23.8,14.4 25.9,15.1 C28,15.8 29.8,16.7 31.3,17.8 C32.7,19.1 33.9,20.5 35,22.2 Z"></path>
                <path d="M41.8,15.1 L46.3,15.1 L46.3,20.1 C47.6,18.1 49.1,16.6 50.6,15.7 C52.1,14.7 53.6,14.2 55.3,14.2 C56.5,14.2 57.8,14.6 59.2,15.4 L56.9,19.1 C56,18.7 55.2,18.5 54.6,18.5 C53.1,18.5 51.7,19.1 50.3,20.3 C48.9,21.5 47.9,23.4 47.2,25.9 C46.7,27.9 46.4,31.8 46.4,37.8 L46.4,49.4 L41.9,49.4 L41.9,15.1 L41.8,15.1 Z"></path>
                <path d="M91.8,38 L95.5,40 C94.3,42.4 92.9,44.3 91.3,45.8 C89.7,47.3 87.9,48.4 85.9,49.2 C83.9,50 81.6,50.4 79.1,50.4 C73.5,50.4 69.1,48.6 66,44.9 C62.8,41.2 61.3,37.1 61.3,32.4 C61.3,28 62.6,24.2 65.3,20.8 C68.7,16.5 73.2,14.3 78.9,14.3 C84.8,14.3 89.4,16.5 92.9,21 C95.4,24.1 96.6,28 96.7,32.7 L65.8,32.7 C65.9,36.7 67.2,40 69.6,42.5 C72.1,45.1 75.1,46.3 78.7,46.3 C80.4,46.3 82.1,46 83.8,45.4 C85.5,44.8 86.9,44 88,43 C89.2,41.9 90.5,40.3 91.8,38 Z M91.8,28.8 C91.2,26.4 90.4,24.6 89.2,23.2 C88.1,21.8 86.6,20.7 84.7,19.8 C82.8,18.9 80.9,18.5 78.9,18.5 C75.5,18.5 72.6,19.6 70.2,21.7 C68.4,23.3 67.1,25.6 66.2,28.8 L91.8,28.8 Z"></path>
                <path d="M139.1,15.1 L139.1,49.4 L134.7,49.4 L134.7,43.5 C132.8,45.8 130.8,47.4 128.5,48.6 C126.2,49.7 123.7,50.3 120.9,50.3 C116,50.3 111.9,48.5 108.4,45 C104.9,41.5 103.2,37.2 103.2,32.1 C103.2,27.2 104.9,22.9 108.4,19.4 C111.9,15.9 116,14.1 120.9,14.1 C123.7,14.1 126.3,14.7 128.6,15.9 C130.9,17.1 132.9,18.9 134.6,21.3 L134.6,15 L139.1,15 L139.1,15.1 Z M121.5,18.5 C119,18.5 116.8,19.1 114.7,20.3 C112.6,21.5 111,23.2 109.7,25.4 C108.5,27.6 107.9,29.9 107.9,32.3 C107.9,34.7 108.5,37 109.8,39.2 C111,41.4 112.7,43.1 114.8,44.4 C116.9,45.7 119.1,46.2 121.5,46.2 C123.9,46.2 126.2,45.6 128.4,44.4 C130.6,43.2 132.2,41.5 133.4,39.5 C134.6,37.4 135.1,35.1 135.1,32.5 C135.1,28.5 133.8,25.2 131.2,22.5 C128.5,19.8 125.3,18.5 121.5,18.5 Z"></path>
                <polygon points="152.9 2.3 157.3 2.3 157.3 15.1 164.3 15.1 164.3 18.9 157.3 18.9 157.3 49.4 152.9 49.4 152.9 18.9 146.9 18.9 146.9 15.1 152.9 15.1"></polygon>
                <path d="M172.5,0.9 C173.5,0.9 174.4,1.3 175.1,2 C175.8,2.7 176.2,3.6 176.2,4.6 C176.2,5.6 175.8,6.4 175.1,7.2 C174.4,7.9 173.5,8.3 172.5,8.3 C171.5,8.3 170.7,7.9 170,7.2 C169.3,6.5 168.9,5.6 168.9,4.6 C168.9,3.6 169.3,2.7 170,2 C170.7,1.3 171.5,0.9 172.5,0.9 Z M170.3,15.1 L174.7,15.1 L174.7,49.4 L170.3,49.4 L170.3,15.1 Z"></path>
                <polygon points="180.7 15.1 185.4 15.1 196.9 40.1 208.3 15.1 213 15.1 197.3 49.4 196.5 49.4"></polygon>
                <path d="M248.6,38 L252.3,40 C251.1,42.4 249.7,44.3 248.1,45.8 C246.5,47.3 244.7,48.4 242.7,49.2 C240.7,50 238.4,50.4 235.9,50.4 C230.3,50.4 225.9,48.6 222.8,44.9 C219.6,41.2 218.1,37.1 218.1,32.4 C218.1,28 219.4,24.2 222.1,20.8 C225.5,16.5 230,14.3 235.7,14.3 C241.6,14.3 246.2,16.5 249.7,21 C252.2,24.1 253.4,28 253.5,32.7 L222.6,32.7 C222.7,36.7 224,40 226.4,42.5 C228.9,45.1 231.9,46.3 235.5,46.3 C237.2,46.3 238.9,46 240.6,45.4 C242.3,44.8 243.7,44 244.8,43 C246,41.9 247.3,40.3 248.6,38 Z M248.6,28.8 C248,26.4 247.2,24.6 246,23.2 C244.9,21.8 243.4,20.7 241.5,19.8 C239.6,18.9 237.7,18.5 235.7,18.5 C232.3,18.5 229.4,19.6 227,21.7 C225.2,23.3 223.9,25.6 223,28.8 L248.6,28.8 Z"></path>
                <path d="M315.5,32.2 L318.6,35.5 C316.6,37.3 314.7,38.8 312.8,40.1 C314.1,41.3 315.7,42.9 317.7,44.9 C319.3,46.5 320.7,48 321.8,49.3 L315.3,49.3 L309.1,43 C305.2,46.1 302.1,48.1 299.7,49.1 C297.3,50 294.7,50.5 292,50.5 C288.4,50.5 285.6,49.5 283.4,47.4 C281.2,45.3 280.1,42.8 280.1,39.7 C280.1,37.4 280.8,35.1 282.3,32.7 C283.8,30.4 286.7,27.4 291.2,23.9 C288.7,20.8 287,18.6 286.3,17.1 C285.6,15.6 285.2,14.2 285.2,12.9 C285.2,10.6 286.1,8.7 287.9,7.2 C290,5.4 292.5,4.5 295.6,4.5 C297.5,4.5 299.3,4.9 300.9,5.7 C302.5,6.5 303.7,7.5 304.6,8.8 C305.4,10.1 305.9,11.5 305.9,13 C305.9,14.6 305.4,16.2 304.3,18 C303.2,19.8 301,22 297.8,24.7 L304.8,32.1 L309.4,36.8 C312.1,35.1 314.1,33.5 315.5,32.2 Z M294.5,27.5 C290.6,30.5 288,32.8 286.7,34.6 C285.5,36.4 284.9,38 284.9,39.5 C284.9,41.3 285.6,42.8 287.1,44.2 C288.6,45.6 290.4,46.2 292.6,46.2 C294.2,46.2 295.9,45.9 297.4,45.2 C299.9,44.1 302.7,42.3 306,39.7 L298.7,32.2 C297.5,30.9 296.1,29.3 294.5,27.5 Z M295.1,21.4 C297.4,19.7 299.1,17.9 300.2,16.3 C301,15.1 301.4,14 301.4,13.1 C301.4,12 300.9,11.1 299.8,10.3 C298.8,9.5 297.4,9.1 295.6,9.1 C294,9.1 292.6,9.5 291.6,10.3 C290.6,11.1 290,12 290,13.1 C290,13.9 290.2,14.7 290.6,15.5 C291.8,17.3 293.2,19.3 295.1,21.4 Z"></path>
                <path d="M380.7,1.8 L380.7,49.4 L376.3,49.4 L376.3,43.5 C374.4,45.8 372.4,47.4 370.1,48.6 C367.8,49.7 365.3,50.3 362.5,50.3 C357.6,50.3 353.5,48.5 350,45 C346.6,41.5 344.8,37.2 344.8,32.1 C344.8,27.2 346.5,22.9 350,19.4 C353.5,15.9 357.6,14.1 362.5,14.1 C365.3,14.1 367.9,14.7 370.2,15.9 C372.5,17.1 374.5,18.9 376.2,21.3 L376.2,1.7 L380.7,1.7 L380.7,1.8 Z M363.1,18.5 C360.6,18.5 358.4,19.1 356.3,20.3 C354.2,21.5 352.6,23.2 351.3,25.4 C350.1,27.6 349.5,29.9 349.5,32.3 C349.5,34.7 350.1,37 351.4,39.2 C352.6,41.4 354.3,43.1 356.4,44.4 C358.5,45.6 360.7,46.2 363.1,46.2 C365.5,46.2 367.8,45.6 370,44.4 C372.2,43.2 373.8,41.5 375,39.5 C376.2,37.4 376.7,35.1 376.7,32.5 C376.7,28.5 375.4,25.2 372.8,22.5 C370.1,19.8 366.9,18.5 363.1,18.5 Z"></path>
                <path d="M392.2,0.9 C393.2,0.9 394.1,1.3 394.8,2 C395.5,2.7 395.9,3.6 395.9,4.6 C395.9,5.6 395.5,6.4 394.8,7.2 C394.1,7.9 393.2,8.3 392.2,8.3 C391.2,8.3 390.4,7.9 389.7,7.2 C389,6.5 388.6,5.6 388.6,4.6 C388.6,3.6 389,2.7 389.7,2 C390.4,1.3 391.3,0.9 392.2,0.9 Z M390.1,15.1 L394.5,15.1 L394.5,49.4 L390.1,49.4 L390.1,15.1 Z"></path>
                <path d="M433.3,15.1 L437.7,15.1 L437.7,42.5 C437.7,47.3 437.3,50.8 436.4,53.1 C435.2,56.3 433.2,58.7 430.4,60.4 C427.5,62.1 424.1,63 420.1,63 C417.2,63 414.5,62.6 412.2,61.8 C409.9,61 407.9,59.8 406.5,58.4 C405,57 403.7,54.9 402.4,52.2 L407.2,52.2 C408.5,54.5 410.2,56.2 412.3,57.2 C414.4,58.3 416.9,58.8 420,58.8 C423,58.8 425.6,58.2 427.6,57.1 C429.7,56 431.2,54.6 432,52.9 C432.9,51.2 433.3,48.5 433.3,44.7 L433.3,42.9 C431.6,45 429.6,46.6 427.2,47.7 C424.8,48.8 422.2,49.4 419.6,49.4 C416.4,49.4 413.5,48.6 410.7,47 C407.9,45.4 405.8,43.3 404.3,40.7 C402.8,38 402,35.1 402,32 C402,28.8 402.8,25.9 404.4,23.1 C406,20.4 408.2,18.2 411,16.6 C413.8,15 416.7,14.2 419.8,14.2 C422.4,14.2 424.8,14.7 427,15.8 C429.2,16.9 431.4,18.6 433.4,21.1 L433.4,15.1 L433.3,15.1 Z M420.2,18.5 C417.7,18.5 415.4,19.1 413.2,20.3 C411,21.5 409.4,23.2 408.2,25.3 C407,27.4 406.4,29.7 406.4,32.2 C406.4,36 407.7,39.1 410.2,41.5 C412.7,44 416,45.2 420,45.2 C424.1,45.2 427.3,44 429.8,41.5 C432.3,39.1 433.5,35.9 433.5,31.9 C433.5,29.3 432.9,27 431.8,25 C430.7,23 429.1,21.4 427,20.2 C424.9,19 422.6,18.5 420.2,18.5 Z"></path>
                <path d="M448.7,0.9 C449.7,0.9 450.6,1.3 451.3,2 C452,2.7 452.4,3.6 452.4,4.6 C452.4,5.6 452,6.4 451.3,7.2 C450.6,7.9 449.7,8.3 448.7,8.3 C447.7,8.3 446.9,7.9 446.2,7.2 C445.5,6.5 445.1,5.6 445.1,4.6 C445.1,3.6 445.5,2.7 446.2,2 C446.8,1.3 447.7,0.9 448.7,0.9 Z M446.5,15.1 L450.9,15.1 L450.9,49.4 L446.5,49.4 L446.5,15.1 Z"></path>
                <polygon points="463.9 2.3 468.3 2.3 468.3 15.1 475.3 15.1 475.3 18.9 468.3 18.9 468.3 49.4 463.9 49.4 463.9 18.9 457.9 18.9 457.9 15.1 463.9 15.1"></polygon>
                <path d="M516.2,15.1 L516.2,49.4 L511.8,49.4 L511.8,43.5 C509.9,45.8 507.9,47.4 505.6,48.6 C503.3,49.7 500.8,50.3 498,50.3 C493.1,50.3 489,48.5 485.5,45 C482.1,41.5 480.3,37.2 480.3,32.1 C480.3,27.2 482,22.9 485.5,19.4 C489,15.9 493.1,14.1 498,14.1 C500.8,14.1 503.4,14.7 505.7,15.9 C508,17.1 510,18.9 511.7,21.3 L511.7,15 L516.2,15 L516.2,15.1 Z M498.5,18.5 C496,18.5 493.8,19.1 491.7,20.3 C489.6,21.5 488,23.2 486.7,25.4 C485.5,27.6 484.9,29.9 484.9,32.3 C484.9,34.7 485.5,37 486.8,39.2 C488,41.4 489.7,43.1 491.8,44.4 C493.9,45.6 496.1,46.2 498.5,46.2 C500.9,46.2 503.2,45.6 505.4,44.4 C507.6,43.2 509.2,41.5 510.4,39.5 C511.6,37.4 512.1,35.1 512.1,32.5 C512.1,28.5 510.8,25.2 508.2,22.5 C505.6,19.8 502.4,18.5 498.5,18.5 Z"></path>
                <polygon points="525.5 1.8 529.9 1.8 529.9 49.4 525.5 49.4"></polygon>
            </g>
            <path class="fill-logo" d="M28.4,123.5 C41.9,124.1 54.3,121.2 66.1,115.9 C67.5,115.3 70,115 71.2,115.6 C72.3,116.2 72.9,118.4 72.7,119.7 C71.4,127.6 70.4,135.6 65.5,142.7 C61,149.1 52.2,152.5 45.7,150.3 C45.3,150.2 45,149.9 44.4,149.5 C52.5,150.3 57.9,147.4 61.4,141.5 C64.7,136 65,130 65.1,123.5 C52.5,126.2 40.4,128.7 28.4,123.5 Z" fill="#213452" fill-rule="nonzero"></path>
            <path class="fill-logo" d="M21.5,126 C32.9,131.6 44.3,130.7 55.9,128.9 C48,133.6 38.7,132.7 29.9,133.3 C28.2,146.2 36.4,154.3 50.7,154.1 C43.2,156.8 36.3,155.6 31.3,150.4 C24.6,143.5 22.9,135.1 21.5,126 Z" fill="#213452" fill-rule="nonzero"></path>
            <path class="fill-logo" d="M32,75.5 C32,75.5 32.7,99.1 64.6,95.3 C69.4,94.7 79.1,90.6 84.7,82.6 C89.3,76.1 90.5,66.6 89.6,58.3 C86.9,33 67,21.1 45,21 C21.3,21 6.2,37.9 2.1,55.5 C1.7,57 -4.3,80.9 12.4,100.4 C21.6,111.2 34.6,115.3 48.4,114.3 C58.1,113.6 65.4,109.5 68.6,108.2 C70.9,107.3 79.8,101.7 79.8,101.7 C79.8,101.7 51.4,113.5 31.7,103.6 C21.4,98.4 8.8,85.6 10.2,66.1 C11.5,56.3 16.2,36.5 39.8,32.7 C60.4,29.5 75.2,44.8 76.7,58.9 C78.3,74 69.8,83.3 60.7,85.4 C40.5,90 32,75.5 32,75.5 Z" fill="#213452" fill-rule="nonzero"></path>
            <rect class="fill-logo" fill="#213452" fill-rule="nonzero" x="39.7" y="159.7" width="11.2" height="46.1"></rect>
            <polyline class="stroke-logo" stroke="#213452" stroke-width="3" points="331.6 25.3 571.1 25.3 571.1 204.2 39.7 204.2"></polyline>
            <line class="stroke-logo" x1="342.6" y1="0.3" x2="342.6" y2="71.2" stroke="#213452" stroke-width="3"></line>
            <rect x="100" y="179.1" width="22" height="22"></rect>
            <rect x="80.6" y="89.7" width="22" height="22"></rect>
            <rect x="271.4" y="71.4" width="78.9" height="22"></rect>
            <rect x="545.3" y="178.7" width="22" height="22"></rect>
        </g>
    </g>
</svg>